# xmcd
#
# Track frame offsets: 
#        150
#        20870
#        38301
#        61747
#        77289
#        93919
#        114007
#        138188
#        156091
#        174041
#        196356
#        218705
#        246990
#
# Disc length: 3383 seconds
#
# Revision: 0
# Processed by: cddbd v1.5.2PL0 Copyright (c) Steve Scherf et al.
# Submitted via: ExactAudioCopy v0.95b4
#
DISCID=910d350d
DTITLE=Grace Potter and the Notcurnals - This Is Somewhere
DYEAR=2007
DGENRE=Blues
TTITLE0=Ah Mary
TTITLE1=Stop The Bus
TTITLE2=Apologies
TTITLE3=Ain't No TIme
TTITLE4=Mr. Columbus
TTITLE5=You May See Me
TTITLE6=Lose Some Time
TTITLE7=Mastermind
TTITLE8=Here's To The Meantime
TTITLE9=Falling Or Flying
TTITLE10=Big White Gate
TTITLE11='Til The Morning Comes
TTITLE12=Data
EXTD=
EXTT0=
EXTT1=
EXTT2=
EXTT3=
EXTT4=
EXTT5=
EXTT6=
EXTT7=
EXTT8=
EXTT9=
EXTT10=
EXTT11=
EXTT12=
PLAYORDER=
